<?xml version="1.0" encoding="utf-8"?>
<svg version="1.1" id="Layer_1" xmlns="http://www.w3.org/2000/svg" xmlns:xlink="http://www.w3.org/1999/xlink" x="0px" y="0px"
	 viewBox="0 0 2000 2000" style="enable-background:new 0 0 2000 2000;" xml:space="preserve">
<style type="text/css">
	.st0{fill:#2775CA;}
	.st1{fill:#FFFFFF;}
</style>
<path class="st0" d="M1000,2000c552.3,0,1000-447.7,1000-1000S1552.3,0,1000,0S0,447.7,0,1000S447.7,2000,1000,2000z"/>
<path class="st1" d="M1275.2,1158.8c0-145.9-87.5-195.9-262.5-216.1c-125.8-16.8-151-49.9-151-108.9c0-60.6,42.3-98.9,127-98.9
	c74.7,0,117.1,25.2,138.7,89.2c3.5,10.5,13.3,17.5,24.5,17.5h55.8c15.4,0,27.3-12.6,27.3-27.3c0-3.5-0.7-7-1.4-10.5
	c-28-105.4-110.1-154.6-223.9-154.6c-127,0-223.9,63.4-223.9,182.6c0,123.7,75.4,189.9,253.4,210.1c134.5,16.8,160.4,49.9,160.4,114.7
	c0,69.7-59.9,112.6-142.2,112.6c-110.1,0-150.3-46.4-159.7-108.9c-2.1-11.9-13.3-20.3-25.2-20.3h-57.9c-15.4,0-27.3,12.6-27.3,27.3
	c0,2.8,0.7,5.6,1.4,8.4c23.1,113.3,112.6,173.9,263.9,173.9C1167.7,1350,1275.2,1277.4,1275.2,1158.8L1275.2,1158.8z M1000,281.9
	c-136.6,0-262.5,41.6-367.2,112.6c-11.9,8.4-15.4,24.5-8.4,37.1l32.2,55.1c7.7,13.3,24.5,17.5,37.8,9.8c0.7,0,1.4-0.7,2.1-1.4
	c80.3-54.4,181.9-87.5,293.8-87.5c111.9,0,223.2,37.1,313.4,106.1c11.9,9.1,29.4,6.3,37.8-5.6c1.4-1.4,2.1-3.5,3.5-4.9l32.2-54.4
	c7-11.9,3.5-28-8.4-35.7C1262.5,323.5,1136.6,281.9,1000,281.9L1000,281.9z M1000,474.5c-102.4,0-198.4,30.1-279.3,82.4
	c-11.9,7.7-15.4,23.8-8.4,35.7c0.7,0.7,1.4,2.1,1.4,2.8l32.9,54.4c8.4,13.3,25.9,16.8,39.2,8.4c0.7,0,1.4-0.7,2.1-1.4
	c58.6-37.8,127.7-59.9,201.7-59.9c74,0,151.7,27.3,217.2,75.4c11.9,9.1,29.4,6.3,37.8-5.6c1.4-1.4,2.1-3.5,3.5-4.9l32.2-54.4
	c7-11.9,3.5-28-8.4-35.7C1198.4,504.6,1102.4,474.5,1000,474.5L1000,474.5z M1000,667.1c-68.3,0-134.5,18.9-188.9,53.7
	c-11.9,7.7-15.4,23.8-7.7,35.7c0.7,0.7,1.4,2.1,1.4,2.8l33.6,54.4c8.4,12.6,25.2,16.1,37.8,7.7c1.4-0.7,2.1-1.4,3.5-2.1
	c35.7-23.8,75.4-37.1,120.4-37.1c44.3,0,95.6,17.5,138.7,48.5c11.9,8.4,28.7,5.6,37.1-6.3c1.4-1.4,2.1-3.5,3.5-4.9l32.2-54.4
	c7-11.9,3.5-27.3-7.7-35.7C1134.5,686,1068.3,667.1,1000,667.1L1000,667.1z"/>
</svg>
